<svg width="574px" height="332px"
 viewBox="0.00 0.00 573.92 332.00" xmlns="http://www.w3.org/2000/svg" xmlns:xlink="http://www.w3.org/1999/xlink">
<g id="graph0" class="graph" transform="scale(1.0 1.0) rotate(0.0) translate(4.0 328.0)">
<title>G</title>
<polygon fill="white" stroke="none" points="-4,4 -4,-328 569.92,-328 569.92,4 -4,4"/>
<!-- AppComponent -->
<g id="node1" class="node">
<title>AppComponent</title>
<ellipse fill="none" stroke="#e39571" cx="282.2" cy="-18" rx="70.29" ry="18"/>
<text text-anchor="middle" x="282.2" y="-12.95" font-family="Times,serif" font-size="14.00" fill="#e39571">AppComponent</text>
</g>
<!-- FeatureAComponent -->
<g id="node2" class="node">
<title>FeatureAComponent</title>
<ellipse fill="none" stroke="#103763" cx="185.2" cy="-90" rx="88.71" ry="18"/>
<text text-anchor="middle" x="185.2" y="-84.95" font-family="Times,serif" font-size="14.00" fill="#103763">FeatureAComponent</text>
</g>
<!-- FeatureAComponent&#45;&gt;AppComponent -->
<g id="edge1" class="edge">
<title>FeatureAComponent&#45;&gt;AppComponent</title>
<path fill="none" stroke="#103763" d="M208.19,-72.41C220.75,-63.34 236.51,-51.97 250.25,-42.06"/>
<polygon fill="#103763" stroke="#103763" points="252.09,-45.05 258.15,-36.36 247.99,-39.37 252.09,-45.05"/>
</g>
<!-- FeatureBComponent -->
<g id="node3" class="node">
<title>FeatureBComponent</title>
<ellipse fill="none" stroke="#5f5e8a" cx="380.2" cy="-90" rx="88.2" ry="18"/>
<text text-anchor="middle" x="380.2" y="-84.95" font-family="Times,serif" font-size="14.00" fill="#5f5e8a">FeatureBComponent</text>
</g>
<!-- FeatureBComponent&#45;&gt;AppComponent -->
<g id="edge2" class="edge">
<title>FeatureBComponent&#45;&gt;AppComponent</title>
<path fill="none" stroke="#5f5e8a" d="M356.98,-72.41C344.28,-63.34 328.37,-51.97 314.48,-42.06"/>
<polygon fill="#5f5e8a" stroke="#5f5e8a" points="316.66,-39.31 306.49,-36.35 312.59,-45.01 316.66,-39.31"/>
</g>
<!-- FeatureCComponent -->
<g id="node4" class="node">
<title>FeatureCComponent</title>
<ellipse fill="none" stroke="#6b4163" cx="88.2" cy="-162" rx="88.2" ry="18"/>
<text text-anchor="middle" x="88.2" y="-156.95" font-family="Times,serif" font-size="14.00" fill="#6b4163">FeatureCComponent</text>
</g>
<!-- FeatureCComponent&#45;&gt;FeatureAComponent -->
<g id="edge3" class="edge">
<title>FeatureCComponent&#45;&gt;FeatureAComponent</title>
<path fill="none" stroke="#6b4163" d="M111.19,-144.41C123.66,-135.41 139.28,-124.14 152.95,-114.27"/>
<polygon fill="#6b4163" stroke="#6b4163" points="154.75,-117.29 160.82,-108.6 150.66,-111.61 154.75,-117.29"/>
</g>
<!-- FeatureDComponent -->
<g id="node5" class="node">
<title>FeatureDComponent</title>
<ellipse fill="none" stroke="#2264dd" cx="283.2" cy="-162" rx="88.71" ry="18"/>
<text text-anchor="middle" x="283.2" y="-156.95" font-family="Times,serif" font-size="14.00" fill="#2264dd">FeatureDComponent</text>
</g>
<!-- FeatureDComponent&#45;&gt;FeatureAComponent -->
<g id="edge4" class="edge">
<title>FeatureDComponent&#45;&gt;FeatureAComponent</title>
<path fill="none" stroke="#2264dd" d="M259.98,-144.41C247.38,-135.41 231.6,-124.14 217.78,-114.27"/>
<polygon fill="#2264dd" stroke="#2264dd" points="220,-111.56 209.83,-108.59 215.93,-117.25 220,-111.56"/>
</g>
<!-- FeatureDComponent&#45;&gt;FeatureBComponent -->
<g id="edge5" class="edge">
<title>FeatureDComponent&#45;&gt;FeatureBComponent</title>
<path fill="none" stroke="#2264dd" d="M306.19,-144.41C318.66,-135.41 334.28,-124.14 347.95,-114.27"/>
<polygon fill="#2264dd" stroke="#2264dd" points="349.75,-117.29 355.82,-108.6 345.66,-111.61 349.75,-117.29"/>
</g>
<!-- FeatureEComponent -->
<g id="node6" class="node">
<title>FeatureEComponent</title>
<ellipse fill="none" stroke="#b9cfd4" cx="477.2" cy="-162" rx="87.69" ry="18"/>
<text text-anchor="middle" x="477.2" y="-156.95" font-family="Times,serif" font-size="14.00" fill="#b9cfd4">FeatureEComponent</text>
</g>
<!-- FeatureEComponent&#45;&gt;FeatureBComponent -->
<g id="edge6" class="edge">
<title>FeatureEComponent&#45;&gt;FeatureBComponent</title>
<path fill="none" stroke="#b9cfd4" d="M454.21,-144.41C441.74,-135.41 426.12,-124.14 412.45,-114.27"/>
<polygon fill="#b9cfd4" stroke="#b9cfd4" points="414.74,-111.61 404.59,-108.6 410.65,-117.29 414.74,-111.61"/>
</g>
<!-- FeatureFComponent -->
<g id="node7" class="node">
<title>FeatureFComponent</title>
<ellipse fill="none" stroke="#4718d5" cx="283.2" cy="-234" rx="87.18" ry="18"/>
<text text-anchor="middle" x="283.2" y="-228.95" font-family="Times,serif" font-size="14.00" fill="#4718d5">FeatureFComponent</text>
</g>
<!-- FeatureFComponent&#45;&gt;FeatureDComponent -->
<g id="edge7" class="edge">
<title>FeatureFComponent&#45;&gt;FeatureDComponent</title>
<path fill="none" stroke="#4718d5" d="M283.2,-215.7C283.2,-208.41 283.2,-199.73 283.2,-191.54"/>
<polygon fill="#4718d5" stroke="#4718d5" points="286.7,-191.62 283.2,-181.62 279.7,-191.62 286.7,-191.62"/>
</g>
<!-- FeatureGComponent -->
<g id="node8" class="node">
<title>FeatureGComponent</title>
<ellipse fill="none" stroke="#e0ae24" cx="477.2" cy="-234" rx="88.71" ry="18"/>
<text text-anchor="middle" x="477.2" y="-228.95" font-family="Times,serif" font-size="14.00" fill="#e0ae24">FeatureGComponent</text>
</g>
<!-- FeatureGComponent&#45;&gt;FeatureEComponent -->
<g id="edge8" class="edge">
<title>FeatureGComponent&#45;&gt;FeatureEComponent</title>
<path fill="none" stroke="#e0ae24" d="M477.2,-215.7C477.2,-208.41 477.2,-199.73 477.2,-191.54"/>
<polygon fill="#e0ae24" stroke="#e0ae24" points="480.7,-191.62 477.2,-181.62 473.7,-191.62 480.7,-191.62"/>
</g>
<!-- FeatureIComponent -->
<g id="node9" class="node">
<title>FeatureIComponent</title>
<ellipse fill="none" stroke="#932b53" cx="283.2" cy="-306" rx="85.13" ry="18"/>
<text text-anchor="middle" x="283.2" y="-300.95" font-family="Times,serif" font-size="14.00" fill="#932b53">FeatureIComponent</text>
</g>
<!-- FeatureIComponent&#45;&gt;FeatureFComponent -->
<g id="edge9" class="edge">
<title>FeatureIComponent&#45;&gt;FeatureFComponent</title>
<path fill="none" stroke="#932b53" d="M283.2,-287.7C283.2,-280.41 283.2,-271.73 283.2,-263.54"/>
<polygon fill="#932b53" stroke="#932b53" points="286.7,-263.62 283.2,-253.62 279.7,-263.62 286.7,-263.62"/>
</g>
</g>
</svg>
